#!OML:ASF I:\Actors\actors\Patient Classification 2\Patient 1\Session 1\actor1.ASF
:FULLY-SPECIFIED
:DEGREES
636
root -0.637717 18.7889 5.9422 1.95713 0.262488 -2.17719
lowerback 12.888 1.44113 5.39937
upperback -0.94999 3.06202 3.66417
thorax -8.19914 1.33333 0.264828
lowerneck 2.50996 -1.29482 3.72372
upperneck -0.2332 -1.75169 -11.9851
head -0.685836 -0.788121 -4.61142
rclavicle -1.53064e-014 1.11319e-014
rhumerus 27.4267 18.0446 -60.9336
rradius 126.7
rwrist -7.61584
rhand -33.7942 -34.6917
rfingers 7.12502
rthumb -6.98092 -64.5566
lclavicle -1.53064e-014 1.11319e-014
lhumerus -51.2477 -24.0631 104.793
lradius 111.212
lwrist -5.20935
lhand -12.503 -35.8768
lfingers 7.12502
lthumb 13.5722 -6.3392
rfemur 0 0 0
rtibia 0
rfoot 0 0
rtoes 0
lfemur -7.76778 -2.01358 -14.9227
ltibia 25.2737
lfoot -21.4579 10.9655
ltoes -57.2071
637
root -0.641208 18.7921 5.944 2.0313 0.400402 -2.17047
lowerback 12.986 1.42541 5.44167
upperback -1.02682 3.06013 3.6477
thorax -8.33588 1.32595 0.220952
lowerneck 2.55901 -1.31723 3.76209
upperneck -0.400162 -1.79649 -12.015
head -0.75388 -0.80427 -4.62971
rclavicle 3.32964e-014 4.45278e-014
rhumerus 27.8878 17.8762 -60.6095
rradius 126.973
rwrist -7.60028
rhand -33.757 -35.0753
rfingers 7.12502
rthumb -6.94501 -64.9414
lclavicle 3.32964e-014 4.45278e-014
lhumerus -51.5034 -24.0264 104.827
lradius 111.284
lwrist -5.22758
lhand -12.5161 -35.8272
lfingers 7.12502
lthumb 13.5596 -6.2887
rfemur 0 0 0
rtibia 0
rfoot 0 0
rtoes 0
lfemur -7.88782 -2.05585 -14.9044
ltibia 25.2968
lfoot -21.4354 10.8468
ltoes -57.1848
638
root -0.64368 18.797 5.94575 2.10824 0.495132 -2.18254
lowerback 13.0915 1.42606 5.51265
upperback -1.07923 3.08473 3.64583
thorax -8.44916 1.3311 0.171374
lowerneck 2.50094 -1.35639 3.79499
upperneck -0.563661 -1.86488 -12.0632
head -0.803819 -0.835436 -4.65355
rclavicle 4.96962e-015 1.74931e-014
rhumerus 28.968 17.7397 -59.7352
rradius 127.211
rwrist -7.62986
rhand -33.9165 -35.8836
rfingers 7.12502
rthumb -7.09898 -65.7445
lclavicle 4.96962e-015 1.74931e-014
lhumerus -51.7295 -23.9667 104.903
lradius 111.373
lwrist -5.21364
lhand -12.4748 -35.7672
lfingers 7.12502
lthumb 13.5995 -6.23139
rfemur 0 0 0
rtibia 0
rfoot 0 0
rtoes 0
lfemur -7.98933 -2.12731 -14.8787
ltibia 25.3015
lfoot -21.4059 10.8422
ltoes -57.1651
639
root -0.646631 18.8023 5.94719 2.18423 0.580758 -2.23616
lowerback 13.18 1.4175 5.62093
upperback -1.10696 3.10145 3.66084
thorax -8.52536 1.3322 0.121126
lowerneck 2.4224 -1.41135 3.85279
upperneck -0.801775 -1.96169 -12.1315
head -0.877714 -0.879364 -4.6897
rclavicle 4.99943e-014 3.49861e-014
rhumerus 29.3729 17.78 -59.4081
rradius 127.439
rwrist -7.22681
rhand -34.0326 -35.76
rfingers 7.12502
rthumb -7.21099 -65.6171
lclavicle 4.99943e-014 3.49861e-014
lhumerus -51.971 -23.8492 104.987
lradius 111.489
lwrist -5.2412
lhand -12.4843 -35.7319
lfingers 7.12502
lthumb 13.5902 -6.1955
rfemur 0 0 0
rtibia 0
rfoot 0 0
rtoes 0
lfemur -8.07883 -2.15828 -14.8074
ltibia 25.2753
lfoot -21.2933 10.8869
ltoes -57.2656
640
root -0.649087 18.8064 5.94779 2.24484 0.664828 -2.25099
lowerback 13.2723 1.3974 5.70089
upperback -1.13169 3.09676 3.65406
thorax -8.60126 1.32367 0.0675183
lowerneck 2.28666 -1.45581 3.79373
upperneck -0.984818 -2.03999 -12.0323
head -0.917052 -0.918404 -4.64075
rclavicle -8.94531e-015 -3.65764e-014
rhumerus 29.3052 17.6863 -59.4945
rradius 127.556
rwrist -6.88284
rhand -34.1214 -35.3603
rfingers 7.12502
rthumb -7.29676 -65.2144
lclavicle -8.94531e-015 -3.65764e-014
lhumerus -52.1431 -23.7058 105.021
lradius 111.53
lwrist -5.25283
lhand -12.5073 -35.6829
lfingers 7.12502
lthumb 13.5681 -6.145
rfemur 0 0 0
rtibia 0
rfoot 0 0
rtoes 0
lfemur -8.14158 -2.1187 -14.7745
ltibia 25.2299
lfoot -21.2138 10.9182
ltoes -57.3847
641
root -0.651972 18.8098 5.94925 2.29191 0.728624 -2.20885
lowerback 13.3481 1.38876 5.70272
upperback -1.15237 3.09273 3.64246
thorax -8.66671 1.31932 0.0526877
lowerneck 2.13441 -1.48742 3.6153
upperneck -1.157 -2.10033 -11.8057
head -0.943928 -0.949827 -4.52146
rclavicle -2.68359e-015 7.95139e-015
rhumerus 29.4396 17.3533 -59.3346
rradius 127.684
rwrist -6.89512
rhand -34.2148 -35.2936
rfingers 7.12502
rthumb -7.38687 -65.1447
lclavicle -2.68359e-015 7.95139e-015
lhumerus -52.2434 -23.5699 105.065
lradius 111.502
lwrist -5.16695
lhand -12.4867 -35.6852
lfingers 7.12502
lthumb 13.5879 -6.14864
rfemur 0 0 0
rtibia 0
rfoot 0 0
rtoes 0
lfemur -8.17297 -2.14163 -14.8089
ltibia 25.1875
lfoot -21.1023 11.083
ltoes -57.3761
642
root -0.656962 18.8123 5.95238 2.30813 0.786941 -2.23335
lowerback 13.4026 1.37128 5.72374
upperback -1.14835 3.08052 3.67734
thorax -8.69525 1.31264 0.0793234
lowerneck 2.04333 -1.54817 3.43113
upperneck -1.4178 -2.20845 -11.6335
head -1.01538 -1.00015 -4.42082
rclavicle -1.14301e-014 -4.45278e-014
rhumerus 29.6868 17.0348 -59.016
rradius 127.915
rwrist -6.96468
rhand -34.2804 -35.6602
rfingers 7.12502
rthumb -7.45027 -65.509
lclavicle -1.14301e-014 -4.45278e-014
lhumerus -52.3477 -23.3804 105.123
lradius 111.482
lwrist -5.05975
lhand -12.4386 -35.8102
lfingers 7.12502
lthumb 13.6343 -6.27676
rfemur 0 0 0
rtibia 0
rfoot 0 0
rtoes 0
lfemur -8.17028 -2.19055 -14.764
ltibia 25.1535
lfoot -20.8489 11.2406
ltoes -57.2197
643
root -0.661963 18.8134 5.95455 2.28832 0.850901 -2.33423
lowerback 13.4854 1.32654 5.80762
upperback -1.11742 3.0467 3.75538
thorax -8.71113 1.29431 0.120924
lowerneck 1.98851 -1.63975 3.25165
upperneck -1.74445 -2.36599 -11.5658
head -1.12065 -1.07098 -4.35882
rclavicle -6.75868e-015 4.13472e-014
rhumerus 29.8528 16.7086 -58.7566
rradius 128.18
rwrist -6.96341
rhand -34.3276 -36.1609
rfingers 7.12502
rthumb -7.49577 -66.0081
lclavicle -6.75868e-015 4.13472e-014
lhumerus -52.4488 -23.1648 105.167
lradius 111.514
lwrist -4.96198
lhand -12.4098 -35.8965
lfingers 7.12502
lthumb 13.6621 -6.36491
rfemur 0 0 0
rtibia 0
rfoot 0 0
rtoes 0
lfemur -8.14088 -2.23259 -14.6333
ltibia 25.1314
lfoot -20.6957 11.283
ltoes -57.1212
644
root -0.666293 18.8136 5.95561 2.26106 0.900207 -2.37788
lowerback 13.5972 1.2783 5.85149
upperback -1.09453 3.00288 3.8088
thorax -8.75311 1.27161 0.15986
lowerneck 1.9343 -1.73934 3.08458
upperneck -2.04496 -2.53217 -11.5237
head -1.21863 -1.14631 -4.30852
rclavicle 2.28602e-015 -6.36111e-015
rhumerus 29.8449 16.4176 -58.6674
rradius 128.423
rwrist -6.73142
rhand -34.4413 -36.2714
rfingers 7.12502
rthumb -7.60555 -66.1147
lclavicle 2.28602e-015 -6.36111e-015
lhumerus -52.5681 -22.9671 105.232
lradius 111.588
lwrist -4.86402
lhand -12.42 -35.8224
lfingers 7.12502
lthumb 13.6523 -6.29012
rfemur 0 0 0
rtibia 0
rfoot 0 0
rtoes 0
lfemur -8.11175 -2.32473 -14.5802
ltibia 25.1315
lfoot -20.7032 11.3601
ltoes -57.1421
645
root -0.671464 18.8137 5.95764 2.26975 0.93833 -2.37607
lowerback 13.6715 1.22695 5.87662
upperback -1.10471 2.94715 3.81885
thorax -8.80841 1.24223 0.166207
lowerneck 1.85067 -1.85654 2.94157
upperneck -2.23645 -2.71065 -11.4594
head -1.2764 -1.23201 -4.25441
rclavicle 1.16289e-014 -6.36111e-015
rhumerus 29.6196 16.403 -58.8148
rradius 128.706
rwrist -6.03671
rhand -34.5738 -36.3644
rfingers 7.12502
rthumb -7.73338 -66.203
lclavicle 1.16289e-014 -6.36111e-015
lhumerus -52.714 -22.7817 105.305
lradius 111.647
lwrist -4.7785
lhand -12.4963 -35.7081
lfingers 7.12502
lthumb 13.5787 -6.17089
rfemur 0 0 0
rtibia 0
rfoot 0 0
rtoes 0
lfemur -8.12876 -2.38315 -14.5727
ltibia 25.1435
lfoot -20.6842 11.4105
ltoes -57.187
646
root -0.677995 18.8136 5.95927 2.31619 0.996785 -2.40273
lowerback 13.7251 1.15938 5.92954
upperback -1.14161 2.87533 3.83573
thorax -8.881 1.20328 0.168365
lowerneck 1.76385 -2.0307 2.82465
upperneck -2.38916 -2.96386 -11.4657
head -1.3289 -1.35545 -4.22928
rclavicle 2.5842e-015 -9.54166e-015
rhumerus 29.2499 16.5442 -59.0336
rradius 129.068
rwrist -5.19443
rhand -34.5018 -36.7909
rfingers 7.12502
rthumb -7.66389 -66.632
lclavicle 2.5842e-015 -9.54166e-015
lhumerus -52.8596 -22.6334 105.377
lradius 111.676
lwrist -4.74527
lhand -12.6194 -35.6673
lfingers 7.12502
lthumb 13.46 -6.12226
rfemur 0 0 0
rtibia 0
rfoot 0 0
rtoes 0
lfemur -8.19649 -2.37464 -14.511
ltibia 25.1489
lfoot -20.6605 11.3553
ltoes -57.151
647
root -0.685004 18.8133 5.95942 2.36773 1.04865 -2.40022
lowerback 13.8098 1.0953 5.94039
upperback -1.17821 2.80359 3.84758
thorax -8.97276 1.16577 0.188121
lowerneck 1.6029 -2.27012 2.65691
upperneck -2.52609 -3.30274 -11.4077
head -1.36657 -1.52452 -4.16938
rclavicle -1.39149e-014 2.06736e-014
rhumerus 28.9887 16.5493 -59.0219
rradius 129.451
rwrist -4.60542
rhand -34.632 -37.2385
rfingers 7.12502
rthumb -7.78963 -67.075
lclavicle -1.39149e-014 2.06736e-014
lhumerus -52.9901 -22.5248 105.428
lradius 111.708
lwrist -4.74896
lhand -12.6007 -35.6674
lfingers 7.12502
lthumb 13.478 -6.12354
rfemur 0 0 0
rtibia 0
rfoot 0 0
rtoes 0
lfemur -8.27459 -2.29825 -14.4743
ltibia 25.1507
lfoot -20.6642 11.2553
ltoes -57.1402
648
root -0.691216 18.8123 5.96073 2.41354 1.06387 -2.33369
lowerback 13.8538 1.03593 5.8631
upperback -1.17655 2.71739 3.86671
thorax -9.00365 1.12794 0.269035
lowerneck 1.38276 -2.52573 2.39216
upperneck -2.65847 -3.65979 -11.2117
head -1.38619 -1.70517 -4.0412
rclavicle -9.64106e-015 -2.06736e-014
rhumerus 29.0909 16.3726 -58.6231
rradius 129.827
rwrist -4.24911
rhand -35.1367 -37.7934
rfingers 7.12502
rthumb -8.27671 -67.6113
lclavicle -9.64106e-015 -2.06736e-014
lhumerus -53.0499 -22.356 105.473
lradius 111.732
lwrist -4.74733
lhand -12.4081 -35.7301
lfingers 7.12502
lthumb 13.6637 -6.19857
rfemur 0 0 0
rtibia 0
rfoot 0 0
rtoes 0
lfemur -8.33194 -2.19134 -14.5234
ltibia 25.1561
lfoot -20.7385 11.0026
ltoes -57.2311
649
root -0.697713 18.8106 5.96254 2.44505 1.06328 -2.27683
lowerback 13.8516 0.961351 5.75785
upperback -1.14947 2.60386 3.92619
thorax -8.98394 1.08108 0.415735
lowerneck 1.26804 -2.78255 2.1436
upperneck -2.84586 -4.02451 -11.0618
head -1.44344 -1.88427 -3.93258
rclavicle -1.94809e-014 4.29375e-014
rhumerus 29.314 16.1286 -58.2603
rradius 130.096
rwrist -3.97298
rhand -35.4227 -38.528
rfingers 7.12502
rthumb -8.55267 -68.3348
lclavicle -1.94809e-014 4.29375e-014
lhumerus -53.0477 -22.1415 105.576
lradius 111.725
lwrist -4.71718
lhand -12.3672 -35.8242
lfingers 7.12502
lthumb 13.7031 -6.29535
rfemur 0 0 0
rtibia 0
rfoot 0 0
rtoes 0
lfemur -8.37016 -2.10233 -14.5666
ltibia 25.1637
lfoot -20.8868 10.6824
ltoes -57.3436
650
root -0.704457 18.8091 5.96261 2.47101 1.05019 -2.24265
lowerback 13.8936 0.877455 5.69
upperback -1.13371 2.48811 3.97618
thorax -8.9996 1.03001 0.53115
lowerneck 1.15502 -3.05591 1.99606
upperneck -2.97275 -4.40578 -10.9843
head -1.48623 -2.07349 -3.86917
rclavicle -2.47487e-014 -6.67916e-014
rhumerus 29.3606 15.9577 -58.2101
rradius 130.275
rwrist -3.47026
rhand -35.4623 -38.9061
rfingers 7.12502
rthumb -8.59095 -68.7113
lclavicle -2.47487e-014 -6.67916e-014
lhumerus -53.0612 -22.0122 105.702
lradius 111.709
lwrist -4.63177
lhand -12.518 -35.8557
lfingers 7.12502
lthumb 13.5578 -6.31716
rfemur 0 0 0
rtibia 0
rfoot 0 0
rtoes 0
lfemur -8.40728 -2.11029 -14.5891
ltibia 25.1736
lfoot -20.9869 10.7259
ltoes -57.5013
651
root -0.710747 18.8081 5.96236 2.5105 1.00154 -2.22102
lowerback 13.9716 0.790731 5.65994
upperback -1.13835 2.3774 4.0022
thorax -9.05518 0.97768 0.598362
lowerneck 1.04139 -3.31716 1.88426
upperneck -3.07397 -4.76442 -10.8361
head -1.51652 -2.25358 -3.78822
rclavicle 1.78906e-014 5.40694e-014
rhumerus 29.287 15.8044 -58.254
rradius 130.515
rwrist -2.78677
rhand -35.6133 -38.7833
rfingers 7.12502
rthumb -8.73663 -68.5825
lclavicle 1.78906e-014 5.40694e-014
lhumerus -53.0889 -21.9177 105.795
lradius 111.69
lwrist -4.54468
lhand -12.524 -35.7378
lfingers 7.12502
lthumb 13.552 -6.19881
rfemur 0 0 0
rtibia 0
rfoot 0 0
rtoes 0
lfemur -8.43982 -2.24354 -14.6082
ltibia 25.1828
lfoot -21.0755 10.9982
ltoes -57.5458
